<svg width="20" height="20" viewBox="0 0 20 20" fill="none" xmlns="http://www.w3.org/2000/svg">
<circle cx="10" cy="10" r="9.5" fill="#4A2BE2" stroke="#4A2BE2"/>
<path fill-rule="evenodd" clip-rule="evenodd" d="M14.7942 7.20078C14.6623 7.07222 14.4835 7 14.297 7C14.1106 7 13.9318 7.07222 13.7999 7.20078L9.20772 12.3167L7.19822 10.3553C7.13297 10.2918 7.05554 10.2414 6.97033 10.207C6.88512 10.1726 6.7938 10.155 6.7016 10.1551C6.6094 10.1551 6.51811 10.1729 6.43296 10.2074C6.3478 10.2419 6.27043 10.2924 6.20528 10.356C6.14014 10.4197 6.08847 10.4953 6.05325 10.5784C6.01803 10.6615 5.99993 10.7506 6 10.8406C6.00007 10.9306 6.01829 11.0196 6.05364 11.1027C6.08898 11.1858 6.14076 11.2613 6.206 11.3249L8.74278 13.8C8.87579 13.9281 9.05519 14 9.24211 14C9.42903 14 9.60843 13.9281 9.74144 13.8L14.7942 8.17099C14.926 8.04228 15 7.8678 15 7.68588C15 7.50397 14.926 7.32949 14.7942 7.20078Z" fill="white"/>
</svg>
