<svg width="25" height="24" viewBox="0 0 25 24" fill="none" xmlns="http://www.w3.org/2000/svg">
<path d="M18.5 10.7219H6.5C5.39543 10.7219 4.5 11.6174 4.5 12.7219V20.9999C4.5 22.1045 5.39543 22.9999 6.5 22.9999H18.5C19.6046 22.9999 20.5 22.1045 20.5 20.9999V12.7219C20.5 11.6174 19.6046 10.7219 18.5 10.7219Z" fill="#4A2BE2"/>
<path d="M13.7627 15C13.7627 14.4477 13.315 14 12.7627 14C12.2104 14 11.7627 14.4477 11.7627 15V18C11.7627 18.5523 12.2104 19 12.7627 19C13.315 19 13.7627 18.5523 13.7627 18V15Z" fill="white"/>
<path d="M13.2627 15C13.2627 14.7239 13.0388 14.5 12.7627 14.5C12.4866 14.5 12.2627 14.7239 12.2627 15V18C12.2627 18.2761 12.4866 18.5 12.7627 18.5C13.0388 18.5 13.2627 18.2761 13.2627 18V15Z" stroke="white"/>
<path d="M8.5 5.88004V14.132C8.5 14.3707 8.59482 14.5997 8.7636 14.7684C8.93239 14.9372 9.1613 15.032 9.4 15.032C9.63869 15.032 9.86761 14.9372 10.0364 14.7684C10.2052 14.5997 10.3 14.3707 10.3 14.132V5.88004C10.3172 5.31304 10.5545 4.77501 10.9616 4.38001C11.3688 3.98501 11.9137 3.7641 12.481 3.7641C13.0483 3.7641 13.5932 3.98501 14.0004 4.38001C14.4075 4.77501 14.6448 5.31304 14.662 5.88004V8.11704C14.662 8.35574 14.7568 8.58466 14.9256 8.75344C15.0944 8.92222 15.3233 9.01704 15.562 9.01704C15.8007 9.01704 16.0296 8.92222 16.1984 8.75344C16.3672 8.58466 16.462 8.35574 16.462 8.11704V5.88004C16.4387 4.84019 16.0092 3.85078 15.2656 3.1236C14.5219 2.39642 13.5231 1.98926 12.483 1.98926C11.4429 1.98926 10.4441 2.39642 9.70044 3.1236C8.95677 3.85078 8.52731 4.84019 8.504 5.88004" fill="#4A2BE2"/>
</svg>
