<svg width="14" height="16" viewBox="0 0 14 16" fill="none" xmlns="http://www.w3.org/2000/svg">
<path d="M2 1H12C12.3978 1 12.7794 1.15804 13.0607 1.43934C13.342 1.72064 13.5 2.10218 13.5 2.5V10.5C13.5 11.6935 13.0259 12.8381 12.182 13.682C11.3381 14.5259 10.1935 15 9 15H2C1.60218 15 1.22064 14.842 0.93934 14.5607C0.658035 14.2794 0.5 13.8978 0.5 13.5V2.5C0.5 2.10218 0.658035 1.72064 0.93934 1.43934C1.22064 1.15804 1.60218 1 2 1V1Z" stroke="black"/>
<path d="M3.5 4H8.5" stroke="black"/>
<path d="M3.5 7H6.5" stroke="black"/>
<path d="M8.5 10H13.5" stroke="black"/>
<path d="M8.5 14.891V9.5" stroke="black"/>
</svg>
