<svg width="10" height="10" viewBox="0 0 10 10" fill="none" xmlns="http://www.w3.org/2000/svg">
<path fill-rule="evenodd" clip-rule="evenodd" d="M7.63438 3.21687L4.98875 6.11937L2.36125 3.23625C2.33614 3.20747 2.30516 3.18441 2.27039 3.1686C2.23563 3.15279 2.19788 3.14462 2.15969 3.14462C2.1215 3.14462 2.08375 3.15279 2.04898 3.1686C2.01421 3.18441 1.98323 3.20747 1.95813 3.23625C1.90438 3.2973 1.87473 3.37585 1.87473 3.45719C1.87473 3.53852 1.90438 3.61707 1.95813 3.67813L4.77938 6.77375C4.7825 6.7775 4.78688 6.77812 4.79063 6.78187C4.81585 6.811 4.84705 6.83435 4.8821 6.85036C4.91714 6.86637 4.95522 6.87465 4.99375 6.87465C5.03228 6.87465 5.07036 6.86637 5.10541 6.85036C5.14045 6.83435 5.17165 6.811 5.19688 6.78187L8.04063 3.6625C8.09494 3.60086 8.1249 3.52153 8.1249 3.43937C8.1249 3.35722 8.09494 3.27789 8.04063 3.21625C8.01528 3.18731 7.98405 3.16412 7.94902 3.14823C7.91399 3.13235 7.87597 3.12413 7.8375 3.12413C7.79903 3.12413 7.76101 3.13235 7.72598 3.14823C7.69095 3.16412 7.65972 3.18731 7.63438 3.21625" fill="black"/>
</svg>
