<svg width="14" height="14" viewBox="0 0 14 14" fill="none" xmlns="http://www.w3.org/2000/svg">
<path d="M7 0.622559C8.38447 0.622559 9.73785 1.01355 10.889 1.74609C12.0401 2.47864 12.9373 3.51983 13.4672 4.738C13.997 5.95618 14.1356 7.29662 13.8655 8.58983C13.5954 9.88303 12.9287 11.0709 11.9497 12.0033C10.9708 12.9356 9.7235 13.5706 8.36563 13.8278C7.00776 14.085 5.6003 13.953 4.32122 13.4484C3.04213 12.9438 1.94888 12.0894 1.17971 10.993C0.410543 9.8967 0 8.60777 0 7.28922C0 5.52111 0.737498 3.82542 2.05025 2.57518C3.36301 1.32494 5.14348 0.622559 7 0.622559V0.622559Z" fill="#AAAAAA"/>
<path d="M7.69999 4.00016C7.69999 3.63197 7.38659 3.3335 6.99999 3.3335C6.61339 3.3335 6.29999 3.63197 6.29999 4.00016V8.00016C6.29999 8.36835 6.61339 8.66683 6.99999 8.66683C7.38659 8.66683 7.69999 8.36835 7.69999 8.00016V4.00016Z" fill="white"/>
<path d="M6.99999 11.3333C7.38659 11.3333 7.69999 11.0349 7.69999 10.6667C7.69999 10.2985 7.38659 10 6.99999 10C6.61339 10 6.29999 10.2985 6.29999 10.6667C6.29999 11.0349 6.61339 11.3333 6.99999 11.3333Z" fill="white"/>
</svg>
