<svg width="32" height="32" viewBox="0 0 32 32" fill="none" xmlns="http://www.w3.org/2000/svg">
<path d="M16 32C24.8366 32 32 24.8366 32 16C32 7.16344 24.8366 0 16 0C7.16344 0 0 7.16344 0 16C0 24.8366 7.16344 32 16 32Z" fill="#4A2BE2"/>
<path fill-rule="evenodd" clip-rule="evenodd" d="M21.7257 11.2582C21.5448 11.0921 21.3082 11 21.0627 11C20.8171 11 20.5805 11.0921 20.3997 11.2582L14.2744 17.8356L11.5968 15.3156C11.4167 15.1493 11.1805 15.0569 10.9353 15.0569C10.6901 15.0569 10.4539 15.1493 10.2738 15.3156C10.1875 15.3947 10.1186 15.4909 10.0715 15.5981C10.0243 15.7052 10 15.821 10 15.9381C10 16.0552 10.0243 16.171 10.0715 16.2781C10.1186 16.3853 10.1875 16.4815 10.2738 16.5606L13.6564 19.7428C13.8387 19.9083 14.0761 20 14.3224 20C14.5686 20 14.806 19.9083 14.9884 19.7428L21.7257 12.5054C21.8121 12.4262 21.8812 12.3298 21.9284 12.2225C21.9756 12.1151 22 11.9991 22 11.8818C22 11.7645 21.9756 11.6485 21.9284 11.5412C21.8812 11.4338 21.8121 11.3375 21.7257 11.2582Z" fill="white"/>
</svg>
