<svg width="10" height="6" viewBox="0 0 10 6" fill="none" xmlns="http://www.w3.org/2000/svg">
<path fill-rule="evenodd" clip-rule="evenodd" d="M8.70703 3.5L0.707031 3.5L0.707031 2.5L8.70703 2.5L8.70703 3.5Z" fill="#AAAAAA"/>
<path fill-rule="evenodd" clip-rule="evenodd" d="M6.35348 0.646447C6.54874 0.451184 6.86532 0.451184 7.06058 0.646447L9.41414 3L7.06058 5.35355C6.86532 5.54882 6.54874 5.54882 6.35348 5.35355C6.15822 5.15829 6.15822 4.84171 6.35348 4.64645L7.99992 3L6.35348 1.35355C6.15822 1.15829 6.15822 0.841709 6.35348 0.646447Z" fill="#AAAAAA"/>
<path fill-rule="evenodd" clip-rule="evenodd" d="M3.06058 5.35355C2.86532 5.54882 2.54874 5.54882 2.35348 5.35355L-7.53601e-05 3L2.35348 0.646447C2.54874 0.451184 2.86532 0.451184 3.06059 0.646447C3.25585 0.841709 3.25585 1.15829 3.06058 1.35355L1.41414 3L3.06058 4.64645C3.25585 4.84171 3.25585 5.15829 3.06058 5.35355Z" fill="#AAAAAA"/>
</svg>
