<svg width="20" height="20" viewBox="0 0 20 20" fill="none" xmlns="http://www.w3.org/2000/svg">
<path d="M10 20C15.5228 20 20 15.5228 20 10C20 4.47715 15.5228 0 10 0C4.47715 0 0 4.47715 0 10C0 15.5228 4.47715 20 10 20Z" fill="#4A2BE2"/>
<path d="M11 5C11 4.44772 10.5523 4 10 4C9.44772 4 9 4.44772 9 5V11C9 11.5523 9.44772 12 10 12C10.5523 12 11 11.5523 11 11V5Z" fill="white"/>
<path d="M10 16C10.5523 16 11 15.5523 11 15C11 14.4477 10.5523 14 10 14C9.44772 14 9 14.4477 9 15C9 15.5523 9.44772 16 10 16Z" fill="white"/>
</svg>
